<?xml version="1.0"?>
<svg version="1.1" xmlns="http://www.w3.org/2000/svg" width="400" height="200" style=""><path fill="#" d="M15.833984375,93.314453125q0-0.2734375,0.423828125-0.3896484375t0.697265625-0.1162109375q0.314453125,0,0.6904296875,0.08203125t0.4580078125,0.423828125q0.396484375,1.599609375,0.6083984375,3.2607421875t0.3212890625,3.3427734375t0.177734375,3.3427734375t0.150390625,3.2880859375q0.369140625-1.626953125,0.7587890625-3.2333984375t1.0185546875-3.2060546875l0-1.09375q0-0.697265625,0.4853515625-1.0048828125t1.3056640625-0.3076171875q0.08203125,0,0.3759765625,0.041015625t0.2939453125,0.2734375q-0.0546875,0.1640625-0.1298828125,0.314453125t-0.0751953125,0.328125q0,2.078125,0.4921875,4.2587890625t0.970703125,4.2451171875q0.2734375-1.763671875,0.62890625-3.513671875t0.73828125-3.486328125q0.505859375-2.32421875,0.7724609375-3.8623046875t0.505859375-2.43359375t0.51953125-1.271484375t0.7861328125-0.3759765625q0.314453125-0.02734375,0.587890625,0.109375t0.21875,0.451171875q-0.984375,4.7578125-1.8388671875,9.54296875t-1.7431640625,9.5703125q0,0.2734375,0.095703125,0.642578125t0.095703125,0.65625q0,0.1640625-0.150390625,0.2734375t-0.3623046875,0.1845703125t-0.46484375,0.1025390625t-0.4443359375,0.02734375q-0.423828125,0-0.888671875-0.1298828125t-0.6015625-0.7451171875q-0.478515625-2.1328125-0.8818359375-4.2861328125t-0.7451171875-4.3408203125q-0.109375,0.505859375-0.205078125,1.025390625t-0.177734375,1.052734375q-0.396484375,2.32421875-0.875,4.6484375t-0.478515625,4.703125q0,0.587890625-0.24609375,0.7587890625t-0.833984375,0.1708984375q-0.451171875,0-0.765625-0.150390625q-0.24609375-0.13671875-0.46484375-0.24609375q-0.19140625-0.109375-0.3486328125-0.2529296875t-0.1572265625-0.2802734375q-0.21875-2.966796875-0.3076171875-5.892578125t-0.1982421875-5.892578125q-0.109375-2.666015625-0.3212890625-5.3251953125t-0.4716796875-5.2841796875z M32.44080078125,112.5234375q0.02734375-0.57421875,0.02734375-1.12109375q0-1.982421875,0.1435546875-3.951171875t0.1982421875-3.951171875q0.08203125-2.26953125,0.150390625-4.498046875t0.2734375-4.484375q0.0546875-0.560546875,0.3212890625-0.7314453125t0.7998046875-0.1708984375q0.24609375,0,0.65625,0.095703125t0.41015625,0.46484375q0.19140625,0.02734375,0.3828125,0.02734375q0.287109375,0,0.587890625-0.0546875q0.4921875-0.08203125,1.0048828125-0.1845703125t1.0185546875-0.1982421875t0.970703125-0.095703125q0.109375,0,0.3076171875,0.013671875t0.396484375,0.08203125t0.3349609375,0.1708984375t0.13671875,0.2666015625t-0.3212890625,0.2939453125t-0.8408203125,0.2255859375t-1.12109375,0.1640625t-1.17578125,0.1162109375t-1.0185546875,0.0751953125t-0.6357421875,0.02734375l-0.02734375,5.140625l0.02734375,2.556640625q0.423828125,0,1.271484375-0.02734375q0.341796875-0.013671875,0.68359375-0.013671875q0.51953125,0,1.06640625,0.02734375q0.90234375,0.041015625,1.626953125,0.1640625t0.916015625,0.4375q0,0.19140625-0.1982421875,0.3076171875t-0.4443359375,0.1708984375t-0.4990234375,0.068359375t-0.3623046875,0.013671875q-1.01171875,0-2.037109375-0.041015625t-2.0234375-0.1640625q0,1.681640625-0.0888671875,3.3359375t-0.0888671875,3.3359375q0,0.724609375,0.013671875,1.4287109375t0.1640625,1.4013671875q0.369140625-0.02734375,0.7998046875-0.068359375t0.875-0.1025390625t0.8544921875-0.1025390625t0.7109375-0.041015625q0.1640625,0,0.4443359375,0.041015625t0.57421875,0.13671875t0.505859375,0.2392578125t0.2119140625,0.3349609375q0,0.21875-0.4033203125,0.3896484375t-1.0322265625,0.2734375t-1.3740234375,0.1435546875t-1.4423828125,0.0546875t-1.2578125,0.013671875l-0.79296875,0q-0.751953125,0-1.1005859375-0.2802734375t-0.4853515625-0.7314453125q-0.109375-0.369140625-0.095703125-0.833984375l0-0.19140625z M43.84546875,94.7021484375q-0.0341796875-0.4169921875,0.0546875-0.724609375t0.35546875-0.505859375t0.8544921875-0.1982421875l2.201171875,0q0.451171875,0,1.1826171875,0.0478515625t1.572265625,0.1435546875t1.6748046875,0.2939453125t1.5244140625,0.4921875t1.12109375,0.724609375t0.4306640625,1.0185546875q0,0.833984375-0.4853515625,1.5654296875t-1.216796875,1.3193359375t-1.544921875,1.0458984375t-1.4560546875,0.8271484375q2.54296875,0.560546875,3.978515625,2.32421875t1.435546875,4.40234375q0,1.39453125-0.533203125,2.7548828125t-1.4560546875,2.4541015625t-2.1875,1.763671875t-2.7138671875,0.669921875q-0.19140625,0-0.4306640625-0.041015625t-0.4375-0.1298828125t-0.341796875-0.2529296875t-0.1435546875-0.423828125q0-1.203125,1.298828125-1.203125q0.21875,0,0.5126953125,0.0615234375t0.4580078125,0.2529296875q0.751953125-0.314453125,1.3740234375-0.998046875t1.052734375-1.5244140625t0.669921875-1.763671875t0.2392578125-1.6748046875q0-0.90234375-0.2666015625-1.8388671875t-0.7724609375-1.736328125t-1.244140625-1.3466796875t-1.6953125-0.68359375q-0.24609375-0.02734375-0.5400390625-0.041015625l-0.587890625-0.02734375t-0.57421875-0.08203125t-0.4853515625-0.21875q0.109375,2.26953125,0.2802734375,4.525390625t0.4580078125,4.525390625q0.109375,0.109375,0.150390625,0.3212890625t0.068359375,0.451171875t0.02734375,0.4580078125l0,0.369140625q0,0.24609375-0.1640625,0.4033203125t-0.3896484375,0.2529296875t-0.478515625,0.123046875t-0.4443359375,0.02734375q-0.615234375,0-0.943359375-0.1640625t-0.46484375-0.478515625t-0.177734375-0.7177734375t-0.068359375-0.8818359375q-0.369140625-3.814453125-0.533203125-7.546875t-0.1640625-7.546875q0-0.451171875-0.0341796875-0.8681640625z M46.3679296875,94.12109375q0,1.681640625,0.109375,3.3701171875t0.19140625,3.3701171875q0.615234375-0.369140625,1.61328125-0.8681640625t1.9345703125-1.1005859375t1.6064453125-1.326171875t0.669921875-1.572265625q0-0.669921875-0.79296875-1.0185546875t-1.845703125-0.51953125t-2.0576171875-0.2119140625t-1.4287109375-0.123046875z M63.36671875,101.39453125l0.08203125-0.1640625q0.21875-0.19140625,0.669921875-0.57421875t0.984375-0.8681640625t1.107421875-1.0185546875t1.0322265625-1.0390625t0.751953125-0.9501953125t0.2939453125-0.7587890625q0-0.1640625,0.1572265625-0.2939453125t0.35546875-0.2119140625t0.4033203125-0.109375t0.35546875-0.02734375q0.314453125,0,0.7177734375,0.095703125t0.5400390625,0.46484375q-0.314453125,2.720703125-0.5810546875,5.3388671875t-0.2666015625,5.3251953125q0,1.845703125,0.2255859375,3.6845703125t0.2255859375,3.6298828125q0,0.21875-0.1982421875,0.3486328125t-0.4443359375,0.1982421875t-0.5126953125,0.095703125t-0.4169921875,0.02734375q-0.642578125,0-0.9501953125-0.2255859375t-0.4306640625-0.57421875t-0.123046875-0.79296875t-0.02734375-0.9228515625q-0.0546875-0.984375-0.1025390625-1.9482421875t-0.0478515625-1.9482421875q0-2.2421875,0.1162109375-4.4638671875t0.4716796875-4.4365234375q-0.314453125,0.314453125-0.7451171875,0.7314453125t-0.9296875,0.806640625t-1.0185546875,0.65625t-0.970703125,0.2666015625q-0.13671875,0-0.4169921875-0.0546875t-0.3076171875-0.287109375z M73.61611328125,100.109375q0-0.95703125,0.587890625-1.818359375t1.4560546875-1.4970703125t1.8935546875-1.01171875t1.88671875-0.3759765625q1.01171875,0,1.7978515625,0.3623046875t1.3330078125,0.9775390625t0.8408203125,1.4697265625t0.2939453125,1.8115234375q0,1.736328125-0.6630859375,3.390625t-1.55859375,3.2333984375t-1.845703125,3.14453125t-1.5654296875,3.1376953125l0.95703125,0.02734375q0.423828125,0,0.8544921875-0.02734375t0.8271484375-0.1640625q0.478515625-0.451171875,1.2578125-0.451171875q0.314453125,0,0.7587890625,0.08203125t0.5263671875,0.478515625q-0.02734375,0-0.02734375,0.109375q0,0.533203125-0.642578125,0.7861328125t-1.4970703125,0.3486328125t-1.6953125,0.095703125l-1.2099609375,0l-0.7109375,0t-0.998046875-0.068359375t-0.8955078125-0.205078125t-0.4716796875-0.451171875q0.587890625-1.681640625,1.626953125-3.390625t2.0712890625-3.4111328125t1.791015625-3.4248046875t0.7587890625-3.486328125q0-0.341796875-0.1162109375-0.916015625t-0.396484375-1.12109375t-0.751953125-0.9228515625t-1.2099609375-0.3486328125q-0.669921875,0.0546875-1.244140625,0.4443359375t-1.0322265625,0.9501953125t-0.779296875,1.2236328125t-0.4716796875,1.2509765625q0,0.21875,0.0888671875,0.4443359375t0.0888671875,0.4443359375t-0.2939453125,0.2802734375t-0.4443359375,0.0615234375q-0.560546875,0-0.8681640625-0.46484375t-0.3076171875-0.998046875z M80.56142578125,112.8515625q0.109375,0,0.150390625-0.02734375q-0.095703125,0-0.150390625,0.02734375z M86.5041796875,103.25390625q0-1.2578125,0.1298828125-2.6591796875t0.6220703125-2.5908203125t1.4287109375-1.9755859375t2.5634765625-0.7861328125q0.560546875,0,1.203125,0.177734375t0.888671875,0.73828125q1.28515625,0.314453125,2.0986328125,1.1689453125t1.2646484375,1.9755859375t0.6015625,2.37890625t0.150390625,2.37890625q0,0.806640625-0.095703125,1.873046875t-0.3212890625,2.16015625t-0.62890625,2.1396484375t-0.9912109375,1.873046875t-1.4150390625,1.3330078125t-1.9208984375,0.505859375q-1.203125,0-2.0986328125-0.546875t-1.5107421875-1.4287109375t-0.998046875-2.0302734375t-0.6015625-2.337890625t-0.2939453125-2.32421875t-0.0751953125-2.0234375z M88.9787890625,102.40625q0,1.791015625,0.21875,3.7119140625t0.875,3.6025390625q0.341796875-1.654296875,0.7451171875-3.212890625t0.806640625-3.0693359375t0.79296875-3.0078125t0.7041015625-3.0009765625l-0.109375-0.068359375q-0.2734375,0.0546875-0.669921875,0.013671875t-0.451171875-0.396484375q-0.21875-0.02734375-0.478515625-0.1708984375t-0.109375-0.6767578125q-0.533203125,0-0.916015625,0.369140625t-0.62890625,0.943359375t-0.4033203125,1.28515625t-0.2392578125,1.408203125t-0.109375,1.298828125t-0.02734375,0.970703125z M91.1252734375,111.83984375q0.08203125,0.13671875,0.1982421875,0.2939453125t0.2392578125,0.30078125t0.2666015625,0.2392578125t0.3076171875,0.068359375q0.724609375-0.109375,1.244140625-0.62890625t0.8681640625-1.3056640625t0.546875-1.75t0.2939453125-1.94140625t0.123046875-1.8935546875t0.02734375-1.5859375q0-1.2578125-0.205078125-2.48828125t-0.79296875-2.32421875q-0.806640625,3.25390625-1.4697265625,6.5693359375t-1.6474609375,6.4462890625z M99.98013671875,101.39453125l0.08203125-0.1640625q0.21875-0.19140625,0.669921875-0.57421875t0.984375-0.8681640625t1.107421875-1.0185546875t1.0322265625-1.0390625t0.751953125-0.9501953125t0.2939453125-0.7587890625q0-0.1640625,0.1572265625-0.2939453125t0.35546875-0.2119140625t0.4033203125-0.109375t0.35546875-0.02734375q0.314453125,0,0.7177734375,0.095703125t0.5400390625,0.46484375q-0.314453125,2.720703125-0.5810546875,5.3388671875t-0.2666015625,5.3251953125q0,1.845703125,0.2255859375,3.6845703125t0.2255859375,3.6298828125q0,0.21875-0.1982421875,0.3486328125t-0.4443359375,0.1982421875t-0.5126953125,0.095703125t-0.4169921875,0.02734375q-0.642578125,0-0.9501953125-0.2255859375t-0.4306640625-0.57421875t-0.123046875-0.79296875t-0.02734375-0.9228515625q-0.0546875-0.984375-0.1025390625-1.9482421875t-0.0478515625-1.9482421875q0-2.2421875,0.1162109375-4.4638671875t0.4716796875-4.4365234375q-0.314453125,0.314453125-0.7451171875,0.7314453125t-0.9296875,0.806640625t-1.0185546875,0.65625t-0.970703125,0.2666015625q-0.13671875,0-0.4169921875-0.0546875t-0.3076171875-0.287109375z"/><path fill="#" d=""/></svg>
